<!--?xml version="1.0" encoding="utf-8"?-->
<!-- Generator: Adobe Illustrator 15.1.0, SVG Export Plug-In . SVG Version: 6.00 Build 0)  -->

<svg version="1.1" id="_x32_" xmlns="http://www.w3.org/2000/svg" xmlns:xlink="http://www.w3.org/1999/xlink" x="0px" y="0px" width="512px" height="512px" viewBox="0 0 512 512" style="width: 32px; height: 32px; opacity: 1;" xml:space="preserve">
<style type="text/css">

	.st0{fill:#4B4B4B;}

</style>
<g>
	<path class="st0" d="M324.484,50.922h-50.047h-13.156h-35.828h-14.234H162.25c0,31.594-16.875,65.297-42.156,73.734v27.391h49
		h56.359h35.828h13.156h92.188v-27.391C341.344,116.219,324.484,82.516,324.484,50.922z" style="fill: rgb(20, 27, 29);"></path>
	<path class="st0" d="M469.859,407h-50.047h-13.156h-35.828h-14.234h-11.047h-37.922H295.5h-13.156h-35.828h-14.234h-27.906h-21.063
		h-28.969h-13.172h-35.828H91.125H42.141c0,31.609-16.859,65.313-42.141,73.75v27.391h48.984h56.359h35.813h0.016h13.172h35.813
		h56.359h0.016h18.938h16.875H295.5h18.969h56.359h16.859h18.969h13.156H512V480.75C486.719,472.313,469.859,438.609,469.859,407z" style="fill: rgb(20, 27, 29);"></path>
	<path class="st0" d="M390.234,221.578H247.625l68.844,101.141h115.891v-27.391C407.078,286.891,390.234,253.188,390.234,221.578z" style="fill: rgb(20, 27, 29);"></path>
	<path class="st0" d="M242.594,221.578H99.984c0,31.609-16.859,65.313-42.141,73.75v27.391h115.891L242.594,221.578z" style="fill: rgb(20, 27, 29);"></path>
	<polygon class="st0" points="314.063,341.797 245.109,240.516 176.156,341.797 155.25,327.547 245.109,195.594 334.969,327.547 	
		" style="fill: rgb(20, 27, 29);"></polygon>
	<path class="st0" d="M170.438,43.516c-10.938,0-19.813-8.906-19.813-19.828c0-10.938,8.875-19.828,19.813-19.828
		c2.313,0,4.594,0.391,6.75,1.188l-2.344,8.359C163.688,11.734,164,19.375,164,23.688c0,3.547,2.891,6.438,6.438,6.438
		c1.031,0,7.969-0.656,8.859-1.109l0.563,14.5C177.078,44.906,173.563,43.516,170.438,43.516z" style="fill: rgb(20, 27, 29);"></path>
	<polygon class="st0" points="168.156,40.719 150.313,43.516 141.969,31.234 165.922,36.25 	" style="fill: rgb(20, 27, 29);"></polygon>
	<path class="st0" d="M317.594,43.516c10.938,0,19.813-8.906,19.813-19.828c0-10.938-8.875-19.828-19.813-19.828
		c-2.313,0-4.578,0.391-6.75,1.188l2.359,8.359c11.141-1.672,10.828,5.969,10.828,10.281c0,3.547-2.891,6.438-6.438,6.438
		c-1,0-7.969-0.656-8.859-1.109l-0.547,14.5C310.969,44.906,314.469,43.516,317.594,43.516z" style="fill: rgb(20, 27, 29);"></path>
	<polygon class="st0" points="319.875,40.719 337.719,43.516 346.078,31.234 322.109,36.25 	" style="fill: rgb(20, 27, 29);"></polygon>
	<rect x="170.656" y="173.125" class="st0" width="25.281" height="29.5" style="fill: rgb(20, 27, 29);"></rect>
	<rect x="231.781" y="284.797" class="st0" width="25.281" height="29.5" style="fill: rgb(20, 27, 29);"></rect>
	<rect x="288.656" y="173.125" class="st0" width="25.281" height="29.5" style="fill: rgb(20, 27, 29);"></rect>
	<rect x="94.813" y="356.438" class="st0" width="25.281" height="29.484" style="fill: rgb(20, 27, 29);"></rect>
	<rect x="231.781" y="356.438" class="st0" width="25.281" height="29.484" style="fill: rgb(20, 27, 29);"></rect>
	<rect x="364.516" y="356.438" class="st0" width="25.281" height="29.484" style="fill: rgb(20, 27, 29);"></rect>
</g>
</svg>
